<mxfile host="app.diagrams.net" agent="Mozilla/5.0 (Windows NT 10.0; Win64; x64) AppleWebKit/537.36 (KHTML, like Gecko) Chrome/129.0.0.0 Safari/537.36" version="24.7.17">
  <diagram name="Trang-1" id="BBMIrE__YzpIyOWprumh">
    <mxGraphModel dx="2656" dy="980" grid="1" gridSize="10" guides="1" tooltips="1" connect="1" arrows="1" fold="1" page="1" pageScale="1" pageWidth="827" pageHeight="1169" math="0" shadow="0">
      <root>
        <mxCell id="0" />
        <mxCell id="1" parent="0" />
        <mxCell id="MSWYseAB1ExkJqszaERb-110" style="rounded=0;orthogonalLoop=1;jettySize=auto;html=1;exitX=1;exitY=0;exitDx=0;exitDy=0;strokeColor=#23445D;entryX=0;entryY=0.5;entryDx=0;entryDy=0;labelBackgroundColor=none;fontColor=default;" edge="1" parent="1" source="MSWYseAB1ExkJqszaERb-18" target="MSWYseAB1ExkJqszaERb-111">
          <mxGeometry relative="1" as="geometry">
            <mxPoint x="520" y="180" as="targetPoint" />
          </mxGeometry>
        </mxCell>
        <mxCell id="MSWYseAB1ExkJqszaERb-125" value="&lt;h1&gt;1&lt;/h1&gt;" style="edgeLabel;html=1;align=center;verticalAlign=middle;resizable=0;points=[];strokeColor=#FFFFFF;fontColor=#030303;fillColor=#182E3E;labelBackgroundColor=none;" vertex="1" connectable="0" parent="MSWYseAB1ExkJqszaERb-110">
          <mxGeometry x="-0.7548" y="-1" relative="1" as="geometry">
            <mxPoint as="offset" />
          </mxGeometry>
        </mxCell>
        <mxCell id="MSWYseAB1ExkJqszaERb-126" value="&lt;h1&gt;N&lt;/h1&gt;" style="edgeLabel;html=1;align=center;verticalAlign=middle;resizable=0;points=[];strokeColor=#FFFFFF;fontColor=#000000;fillColor=#182E3E;labelBackgroundColor=none;" vertex="1" connectable="0" parent="MSWYseAB1ExkJqszaERb-110">
          <mxGeometry x="0.6765" y="1" relative="1" as="geometry">
            <mxPoint as="offset" />
          </mxGeometry>
        </mxCell>
        <mxCell id="MSWYseAB1ExkJqszaERb-18" value="&lt;h2 style=&quot;font-size: 20px;&quot;&gt;&lt;font style=&quot;font-size: 20px;&quot; face=&quot;Times New Roman&quot;&gt;KhoaHoc&lt;/font&gt;&lt;/h2&gt;" style="rounded=0;whiteSpace=wrap;html=1;fontSize=20;labelBackgroundColor=none;fillColor=#182E3E;strokeColor=#FFFFFF;fontColor=#FFFFFF;" vertex="1" parent="1">
          <mxGeometry x="240" y="350" width="120" height="60" as="geometry" />
        </mxCell>
        <mxCell id="MSWYseAB1ExkJqszaERb-24" style="edgeStyle=entityRelationEdgeStyle;rounded=0;orthogonalLoop=1;jettySize=auto;html=1;exitX=1;exitY=0.5;exitDx=0;exitDy=0;entryX=0;entryY=0.25;entryDx=0;entryDy=0;labelBackgroundColor=none;fontColor=default;strokeColor=#23445D;" edge="1" parent="1" source="MSWYseAB1ExkJqszaERb-19" target="MSWYseAB1ExkJqszaERb-18">
          <mxGeometry relative="1" as="geometry" />
        </mxCell>
        <mxCell id="MSWYseAB1ExkJqszaERb-19" value=" &#xa;  NgayBatDau " style="ellipse;whiteSpace=wrap;html=1;verticalAlign=top;fontSize=20;labelBackgroundColor=none;fillColor=#182E3E;strokeColor=#FFFFFF;fontColor=#FFFFFF;" vertex="1" parent="1">
          <mxGeometry x="-50" y="240" width="120" height="80" as="geometry" />
        </mxCell>
        <mxCell id="MSWYseAB1ExkJqszaERb-26" style="edgeStyle=orthogonalEdgeStyle;rounded=0;orthogonalLoop=1;jettySize=auto;html=1;entryX=0.75;entryY=0;entryDx=0;entryDy=0;labelBackgroundColor=none;fontColor=default;curved=1;strokeColor=#23445D;" edge="1" parent="1" source="MSWYseAB1ExkJqszaERb-20" target="MSWYseAB1ExkJqszaERb-18">
          <mxGeometry relative="1" as="geometry" />
        </mxCell>
        <mxCell id="MSWYseAB1ExkJqszaERb-20" value=" &#xa;  TenKhoaHoc " style="ellipse;whiteSpace=wrap;html=1;fontFamily=Times New Roman;fontSize=20;align=right;verticalAlign=top;labelBackgroundColor=none;fillColor=#182E3E;strokeColor=#FFFFFF;fontColor=#FFFFFF;" vertex="1" parent="1">
          <mxGeometry x="270" y="150" width="120" height="80" as="geometry" />
        </mxCell>
        <mxCell id="MSWYseAB1ExkJqszaERb-25" style="rounded=0;orthogonalLoop=1;jettySize=auto;html=1;entryX=0;entryY=0;entryDx=0;entryDy=0;labelBackgroundColor=none;fontColor=default;edgeStyle=entityRelationEdgeStyle;elbow=vertical;strokeColor=#23445D;" edge="1" parent="1" source="MSWYseAB1ExkJqszaERb-21" target="MSWYseAB1ExkJqszaERb-18">
          <mxGeometry relative="1" as="geometry" />
        </mxCell>
        <mxCell id="MSWYseAB1ExkJqszaERb-21" value="KhoaHocID" style="ellipse;whiteSpace=wrap;html=1;align=center;fontFamily=Times New Roman;fontSize=20;fontStyle=6;labelBackgroundColor=none;fillColor=#182E3E;strokeColor=#FFFFFF;fontColor=#FFFFFF;" vertex="1" parent="1">
          <mxGeometry x="60" y="160" width="120" height="80" as="geometry" />
        </mxCell>
        <mxCell id="MSWYseAB1ExkJqszaERb-22" value=" &#xa;  NgayKetThuc " style="ellipse;whiteSpace=wrap;html=1;verticalAlign=top;fontSize=20;fontFamily=Times New Roman;labelBackgroundColor=none;fillColor=#182E3E;strokeColor=#FFFFFF;fontColor=#FFFFFF;" vertex="1" parent="1">
          <mxGeometry x="-80" y="330" width="120" height="80" as="geometry" />
        </mxCell>
        <mxCell id="MSWYseAB1ExkJqszaERb-23" style="edgeStyle=entityRelationEdgeStyle;rounded=0;orthogonalLoop=1;jettySize=auto;html=1;entryX=0;entryY=0.75;entryDx=0;entryDy=0;labelBackgroundColor=none;fontColor=default;strokeColor=#23445D;" edge="1" parent="1" source="MSWYseAB1ExkJqszaERb-22" target="MSWYseAB1ExkJqszaERb-18">
          <mxGeometry relative="1" as="geometry" />
        </mxCell>
        <mxCell id="MSWYseAB1ExkJqszaERb-28" value=" &#xa;  HocPhi " style="ellipse;whiteSpace=wrap;html=1;verticalAlign=top;fontSize=20;fontFamily=Times New Roman;labelBackgroundColor=none;fillColor=#182E3E;strokeColor=#FFFFFF;fontColor=#FFFFFF;" vertex="1" parent="1">
          <mxGeometry y="420" width="120" height="80" as="geometry" />
        </mxCell>
        <mxCell id="MSWYseAB1ExkJqszaERb-29" style="edgeStyle=entityRelationEdgeStyle;rounded=0;orthogonalLoop=1;jettySize=auto;html=1;entryX=0;entryY=1;entryDx=0;entryDy=0;labelBackgroundColor=none;fontColor=default;strokeColor=#23445D;" edge="1" parent="1" source="MSWYseAB1ExkJqszaERb-28" target="MSWYseAB1ExkJqszaERb-18">
          <mxGeometry relative="1" as="geometry">
            <Array as="points">
              <mxPoint x="250" y="430" />
            </Array>
          </mxGeometry>
        </mxCell>
        <mxCell id="MSWYseAB1ExkJqszaERb-112" style="rounded=0;orthogonalLoop=1;jettySize=auto;html=1;entryX=1;entryY=0.5;entryDx=0;entryDy=0;strokeColor=#23445D;labelBackgroundColor=none;fontColor=default;" edge="1" parent="1" source="MSWYseAB1ExkJqszaERb-30" target="MSWYseAB1ExkJqszaERb-111">
          <mxGeometry relative="1" as="geometry" />
        </mxCell>
        <mxCell id="MSWYseAB1ExkJqszaERb-127" value="&lt;h1&gt;N&lt;/h1&gt;" style="edgeLabel;html=1;align=center;verticalAlign=middle;resizable=0;points=[];strokeColor=#FFFFFF;fontColor=#000000;fillColor=#182E3E;labelBackgroundColor=none;" vertex="1" connectable="0" parent="MSWYseAB1ExkJqszaERb-112">
          <mxGeometry x="0.7558" relative="1" as="geometry">
            <mxPoint as="offset" />
          </mxGeometry>
        </mxCell>
        <mxCell id="MSWYseAB1ExkJqszaERb-128" value="&lt;h1&gt;1&lt;/h1&gt;" style="edgeLabel;html=1;align=center;verticalAlign=middle;resizable=0;points=[];strokeColor=#FFFFFF;fontColor=#000000;fillColor=#182E3E;labelBackgroundColor=none;" vertex="1" connectable="0" parent="MSWYseAB1ExkJqszaERb-112">
          <mxGeometry x="-0.6387" y="-2" relative="1" as="geometry">
            <mxPoint as="offset" />
          </mxGeometry>
        </mxCell>
        <mxCell id="MSWYseAB1ExkJqszaERb-30" value="HocVien" style="rounded=0;whiteSpace=wrap;html=1;fontSize=20;fontFamily=Times New Roman;verticalAlign=middle;fontStyle=1;labelBackgroundColor=none;fillColor=#182E3E;strokeColor=#FFFFFF;fontColor=#FFFFFF;" vertex="1" parent="1">
          <mxGeometry x="860" y="390" width="120" height="60" as="geometry" />
        </mxCell>
        <mxCell id="MSWYseAB1ExkJqszaERb-31" value=" &#xa;  HoTen " style="ellipse;whiteSpace=wrap;html=1;labelBackgroundColor=none;fontFamily=Times New Roman;fontSize=20;verticalAlign=top;fillColor=#182E3E;strokeColor=#FFFFFF;fontColor=#FFFFFF;" vertex="1" parent="1">
          <mxGeometry x="1030" y="200" width="120" height="80" as="geometry" />
        </mxCell>
        <mxCell id="MSWYseAB1ExkJqszaERb-48" style="edgeStyle=entityRelationEdgeStyle;rounded=0;orthogonalLoop=1;jettySize=auto;html=1;entryX=1;entryY=0.5;entryDx=0;entryDy=0;labelBackgroundColor=none;strokeColor=#23445D;fontColor=default;" edge="1" parent="1" source="MSWYseAB1ExkJqszaERb-32" target="MSWYseAB1ExkJqszaERb-30">
          <mxGeometry relative="1" as="geometry" />
        </mxCell>
        <mxCell id="MSWYseAB1ExkJqszaERb-32" value=" &#xa;  GioiTinh " style="ellipse;whiteSpace=wrap;html=1;verticalAlign=top;fontSize=20;fontFamily=Times New Roman;fontStyle=0;labelBackgroundColor=none;fillColor=#182E3E;strokeColor=#FFFFFF;fontColor=#FFFFFF;" vertex="1" parent="1">
          <mxGeometry x="1121" y="490" width="120" height="80" as="geometry" />
        </mxCell>
        <mxCell id="MSWYseAB1ExkJqszaERb-42" style="rounded=0;orthogonalLoop=1;jettySize=auto;html=1;entryX=1;entryY=0.25;entryDx=0;entryDy=0;edgeStyle=entityRelationEdgeStyle;labelBackgroundColor=none;strokeColor=#23445D;fontColor=default;" edge="1" parent="1" source="MSWYseAB1ExkJqszaERb-33" target="MSWYseAB1ExkJqszaERb-30">
          <mxGeometry relative="1" as="geometry" />
        </mxCell>
        <mxCell id="MSWYseAB1ExkJqszaERb-33" value=" &#xa;  NgaySinh " style="ellipse;whiteSpace=wrap;html=1;verticalAlign=top;fontSize=20;fontFamily=Times New Roman;labelBackgroundColor=none;fillColor=#182E3E;strokeColor=#FFFFFF;fontColor=#FFFFFF;" vertex="1" parent="1">
          <mxGeometry x="1150" y="370" width="120" height="80" as="geometry" />
        </mxCell>
        <mxCell id="MSWYseAB1ExkJqszaERb-45" style="rounded=0;orthogonalLoop=1;jettySize=auto;html=1;entryX=0.5;entryY=0;entryDx=0;entryDy=0;labelBackgroundColor=none;strokeColor=#23445D;fontColor=default;" edge="1" parent="1" source="MSWYseAB1ExkJqszaERb-34" target="MSWYseAB1ExkJqszaERb-30">
          <mxGeometry relative="1" as="geometry" />
        </mxCell>
        <mxCell id="MSWYseAB1ExkJqszaERb-34" value="HocVienID" style="ellipse;whiteSpace=wrap;html=1;labelBackgroundColor=none;fontSize=20;fontFamily=Times New Roman;fontStyle=6;fillColor=#182E3E;strokeColor=#FFFFFF;fontColor=#FFFFFF;" vertex="1" parent="1">
          <mxGeometry x="880" y="170" width="120" height="80" as="geometry" />
        </mxCell>
        <mxCell id="MSWYseAB1ExkJqszaERb-41" style="rounded=0;orthogonalLoop=1;jettySize=auto;html=1;entryX=0.5;entryY=1;entryDx=0;entryDy=0;elbow=vertical;labelBackgroundColor=none;strokeColor=#23445D;fontColor=default;" edge="1" parent="1" source="MSWYseAB1ExkJqszaERb-35" target="MSWYseAB1ExkJqszaERb-30">
          <mxGeometry relative="1" as="geometry" />
        </mxCell>
        <mxCell id="MSWYseAB1ExkJqszaERb-35" value=" &#xa;  DiaChi " style="ellipse;whiteSpace=wrap;html=1;fontSize=20;fontFamily=Times New Roman;verticalAlign=top;labelBackgroundColor=none;fillColor=#182E3E;strokeColor=#FFFFFF;fontColor=#FFFFFF;" vertex="1" parent="1">
          <mxGeometry x="960" y="560" width="120" height="80" as="geometry" />
        </mxCell>
        <mxCell id="MSWYseAB1ExkJqszaERb-43" style="rounded=0;orthogonalLoop=1;jettySize=auto;html=1;entryX=1;entryY=0.25;entryDx=0;entryDy=0;labelBackgroundColor=none;strokeColor=#23445D;fontColor=default;" edge="1" parent="1" source="MSWYseAB1ExkJqszaERb-36" target="MSWYseAB1ExkJqszaERb-30">
          <mxGeometry relative="1" as="geometry">
            <mxPoint x="780" y="290" as="targetPoint" />
          </mxGeometry>
        </mxCell>
        <mxCell id="MSWYseAB1ExkJqszaERb-36" value=" &#xa;  SoDienThoai " style="ellipse;whiteSpace=wrap;html=1;verticalAlign=top;fontSize=20;fontFamily=Times New Roman;labelBackgroundColor=none;fillColor=#182E3E;strokeColor=#FFFFFF;fontColor=#FFFFFF;" vertex="1" parent="1">
          <mxGeometry x="1160" y="260" width="120" height="80" as="geometry" />
        </mxCell>
        <mxCell id="MSWYseAB1ExkJqszaERb-44" style="rounded=0;orthogonalLoop=1;jettySize=auto;html=1;entryX=0.895;entryY=0.045;entryDx=0;entryDy=0;entryPerimeter=0;labelBackgroundColor=none;strokeColor=#23445D;fontColor=default;" edge="1" parent="1" source="MSWYseAB1ExkJqszaERb-31" target="MSWYseAB1ExkJqszaERb-30">
          <mxGeometry relative="1" as="geometry" />
        </mxCell>
        <mxCell id="MSWYseAB1ExkJqszaERb-49" value="GiangVien" style="rounded=0;whiteSpace=wrap;html=1;verticalAlign=middle;fontSize=20;fontFamily=Times New Roman;fontStyle=1;labelBackgroundColor=none;fillColor=#182E3E;strokeColor=#FFFFFF;fontColor=#FFFFFF;" vertex="1" parent="1">
          <mxGeometry x="300" y="730" width="120" height="60" as="geometry" />
        </mxCell>
        <mxCell id="MSWYseAB1ExkJqszaERb-66" style="rounded=0;orthogonalLoop=1;jettySize=auto;html=1;entryX=0;entryY=0.75;entryDx=0;entryDy=0;labelBackgroundColor=none;strokeColor=#23445D;fontColor=default;" edge="1" parent="1" source="MSWYseAB1ExkJqszaERb-54" target="MSWYseAB1ExkJqszaERb-49">
          <mxGeometry relative="1" as="geometry" />
        </mxCell>
        <mxCell id="MSWYseAB1ExkJqszaERb-54" value=" &#xa;  NgayVaoLam " style="ellipse;whiteSpace=wrap;html=1;fontSize=20;verticalAlign=top;fontFamily=Times New Roman;labelBackgroundColor=none;fillColor=#182E3E;strokeColor=#FFFFFF;fontColor=#FFFFFF;" vertex="1" parent="1">
          <mxGeometry x="130" y="800" width="120" height="80" as="geometry" />
        </mxCell>
        <mxCell id="MSWYseAB1ExkJqszaERb-65" style="edgeStyle=orthogonalEdgeStyle;rounded=0;orthogonalLoop=1;jettySize=auto;html=1;entryX=0;entryY=0.5;entryDx=0;entryDy=0;labelBackgroundColor=none;strokeColor=#23445D;fontColor=default;" edge="1" parent="1" source="MSWYseAB1ExkJqszaERb-55" target="MSWYseAB1ExkJqszaERb-49">
          <mxGeometry relative="1" as="geometry" />
        </mxCell>
        <mxCell id="MSWYseAB1ExkJqszaERb-55" value="&#xa;&lt;span style=&quot;font-size: 20px; line-height: 150%;&quot;&gt;GiangVienID&#xa;&lt;/span&gt;&#xa;&#xa;&#xa;&#xa;" style="ellipse;whiteSpace=wrap;html=1;fontSize=20;fontFamily=Times New Roman;verticalAlign=top;fontStyle=6;labelBackgroundColor=none;fillColor=#182E3E;strokeColor=#FFFFFF;fontColor=#FFFFFF;" vertex="1" parent="1">
          <mxGeometry x="80" y="690" width="120" height="80" as="geometry" />
        </mxCell>
        <mxCell id="MSWYseAB1ExkJqszaERb-64" style="rounded=0;orthogonalLoop=1;jettySize=auto;html=1;entryX=0.25;entryY=1;entryDx=0;entryDy=0;labelBackgroundColor=none;strokeColor=#23445D;fontColor=default;" edge="1" parent="1" source="MSWYseAB1ExkJqszaERb-57" target="MSWYseAB1ExkJqszaERb-49">
          <mxGeometry relative="1" as="geometry" />
        </mxCell>
        <mxCell id="MSWYseAB1ExkJqszaERb-57" value=" &#xa;  DiaChi " style="ellipse;whiteSpace=wrap;html=1;fontSize=20;fontFamily=Times New Roman;verticalAlign=top;labelBackgroundColor=none;fillColor=#182E3E;strokeColor=#FFFFFF;fontColor=#FFFFFF;" vertex="1" parent="1">
          <mxGeometry x="240" y="900" width="120" height="80" as="geometry" />
        </mxCell>
        <mxCell id="MSWYseAB1ExkJqszaERb-58" value=" &#xa;  GioiTinh " style="ellipse;whiteSpace=wrap;html=1;verticalAlign=top;fontSize=20;fontFamily=Times New Roman;fontStyle=0;labelBackgroundColor=none;fillColor=#182E3E;strokeColor=#FFFFFF;fontColor=#FFFFFF;" vertex="1" parent="1">
          <mxGeometry x="390" y="900" width="120" height="80" as="geometry" />
        </mxCell>
        <mxCell id="MSWYseAB1ExkJqszaERb-68" style="rounded=0;orthogonalLoop=1;jettySize=auto;html=1;entryX=1;entryY=0.75;entryDx=0;entryDy=0;labelBackgroundColor=none;strokeColor=#23445D;fontColor=default;" edge="1" parent="1" source="MSWYseAB1ExkJqszaERb-60" target="MSWYseAB1ExkJqszaERb-49">
          <mxGeometry relative="1" as="geometry" />
        </mxCell>
        <mxCell id="MSWYseAB1ExkJqszaERb-60" value=" &#xa;  SoDienThoai " style="ellipse;whiteSpace=wrap;html=1;verticalAlign=top;fontSize=20;fontFamily=Times New Roman;labelBackgroundColor=none;fillColor=#182E3E;strokeColor=#FFFFFF;fontColor=#FFFFFF;" vertex="1" parent="1">
          <mxGeometry x="610" y="750" width="120" height="80" as="geometry" />
        </mxCell>
        <mxCell id="MSWYseAB1ExkJqszaERb-69" style="rounded=0;orthogonalLoop=1;jettySize=auto;html=1;entryX=1;entryY=0.5;entryDx=0;entryDy=0;labelBackgroundColor=none;strokeColor=#23445D;fontColor=default;" edge="1" parent="1" source="MSWYseAB1ExkJqszaERb-61" target="MSWYseAB1ExkJqszaERb-49">
          <mxGeometry relative="1" as="geometry" />
        </mxCell>
        <mxCell id="MSWYseAB1ExkJqszaERb-61" value=" &#xa;  NgaySinh " style="ellipse;whiteSpace=wrap;html=1;verticalAlign=top;fontSize=20;fontFamily=Times New Roman;labelBackgroundColor=none;fillColor=#182E3E;strokeColor=#FFFFFF;fontColor=#FFFFFF;" vertex="1" parent="1">
          <mxGeometry x="510" y="670" width="120" height="80" as="geometry" />
        </mxCell>
        <mxCell id="MSWYseAB1ExkJqszaERb-67" style="rounded=0;orthogonalLoop=1;jettySize=auto;html=1;labelBackgroundColor=none;strokeColor=#23445D;fontColor=default;" edge="1" parent="1" source="MSWYseAB1ExkJqszaERb-62" target="MSWYseAB1ExkJqszaERb-49">
          <mxGeometry relative="1" as="geometry" />
        </mxCell>
        <mxCell id="MSWYseAB1ExkJqszaERb-62" value=" &#xa;  HoTen " style="ellipse;whiteSpace=wrap;html=1;labelBackgroundColor=none;fontFamily=Times New Roman;fontSize=20;verticalAlign=top;fillColor=#182E3E;strokeColor=#FFFFFF;fontColor=#FFFFFF;" vertex="1" parent="1">
          <mxGeometry x="510" y="830" width="120" height="80" as="geometry" />
        </mxCell>
        <mxCell id="MSWYseAB1ExkJqszaERb-63" style="rounded=0;orthogonalLoop=1;jettySize=auto;html=1;exitX=0.5;exitY=0;exitDx=0;exitDy=0;entryX=0.5;entryY=1;entryDx=0;entryDy=0;labelBackgroundColor=none;strokeColor=#23445D;fontColor=default;" edge="1" parent="1" source="MSWYseAB1ExkJqszaERb-58" target="MSWYseAB1ExkJqszaERb-49">
          <mxGeometry relative="1" as="geometry">
            <mxPoint x="480" y="710" as="targetPoint" />
          </mxGeometry>
        </mxCell>
        <mxCell id="MSWYseAB1ExkJqszaERb-74" value="" style="endArrow=none;html=1;rounded=0;exitX=1;exitY=0.5;exitDx=0;exitDy=0;entryX=0;entryY=0.5;entryDx=0;entryDy=0;labelBackgroundColor=none;strokeColor=#23445D;fontColor=default;" edge="1" parent="1" source="MSWYseAB1ExkJqszaERb-97" target="MSWYseAB1ExkJqszaERb-30">
          <mxGeometry width="50" height="50" relative="1" as="geometry">
            <mxPoint x="600" y="580" as="sourcePoint" />
            <mxPoint x="650" y="530" as="targetPoint" />
          </mxGeometry>
        </mxCell>
        <mxCell id="MSWYseAB1ExkJqszaERb-79" value="&lt;h1&gt;N&lt;/h1&gt;" style="edgeLabel;html=1;align=center;verticalAlign=middle;resizable=0;points=[];fontStyle=1;labelBackgroundColor=none;fontColor=#000000;" vertex="1" connectable="0" parent="MSWYseAB1ExkJqszaERb-74">
          <mxGeometry x="0.512" y="1" relative="1" as="geometry">
            <mxPoint as="offset" />
          </mxGeometry>
        </mxCell>
        <mxCell id="MSWYseAB1ExkJqszaERb-80" value="" style="endArrow=none;html=1;rounded=0;exitX=0.5;exitY=0;exitDx=0;exitDy=0;entryX=0.5;entryY=1;entryDx=0;entryDy=0;labelBackgroundColor=none;strokeColor=#23445D;fontColor=default;" edge="1" parent="1" source="MSWYseAB1ExkJqszaERb-83" target="MSWYseAB1ExkJqszaERb-18">
          <mxGeometry width="50" height="50" relative="1" as="geometry">
            <mxPoint x="600" y="480" as="sourcePoint" />
            <mxPoint x="650" y="430" as="targetPoint" />
          </mxGeometry>
        </mxCell>
        <mxCell id="MSWYseAB1ExkJqszaERb-81" value="&lt;h1&gt;N&lt;/h1&gt;" style="edgeLabel;html=1;align=center;verticalAlign=middle;resizable=0;points=[];labelBackgroundColor=none;fontColor=#121212;" vertex="1" connectable="0" parent="MSWYseAB1ExkJqszaERb-80">
          <mxGeometry x="0.7078" y="2" relative="1" as="geometry">
            <mxPoint x="1" y="1" as="offset" />
          </mxGeometry>
        </mxCell>
        <mxCell id="MSWYseAB1ExkJqszaERb-84" value="" style="endArrow=none;html=1;rounded=0;exitX=0.25;exitY=0;exitDx=0;exitDy=0;entryX=0.5;entryY=1;entryDx=0;entryDy=0;labelBackgroundColor=none;strokeColor=#23445D;fontColor=default;" edge="1" parent="1" source="MSWYseAB1ExkJqszaERb-49" target="MSWYseAB1ExkJqszaERb-83">
          <mxGeometry width="50" height="50" relative="1" as="geometry">
            <mxPoint x="410" y="630" as="sourcePoint" />
            <mxPoint x="300" y="410" as="targetPoint" />
          </mxGeometry>
        </mxCell>
        <mxCell id="MSWYseAB1ExkJqszaERb-86" value="&lt;h1&gt;N&lt;/h1&gt;" style="edgeLabel;html=1;align=center;verticalAlign=middle;resizable=0;points=[];labelBackgroundColor=none;fontColor=#0D0D0D;" vertex="1" connectable="0" parent="MSWYseAB1ExkJqszaERb-84">
          <mxGeometry x="-0.7005" y="1" relative="1" as="geometry">
            <mxPoint as="offset" />
          </mxGeometry>
        </mxCell>
        <mxCell id="MSWYseAB1ExkJqszaERb-83" value="&lt;h1&gt;Dạy&lt;/h1&gt;" style="rhombus;whiteSpace=wrap;html=1;labelBackgroundColor=none;fillColor=#182E3E;strokeColor=#FFFFFF;fontColor=#FFFFFF;" vertex="1" parent="1">
          <mxGeometry x="290" y="570" width="80" height="80" as="geometry" />
        </mxCell>
        <mxCell id="MSWYseAB1ExkJqszaERb-95" style="rounded=0;orthogonalLoop=1;jettySize=auto;html=1;entryX=1;entryY=0.5;entryDx=0;entryDy=0;labelBackgroundColor=none;strokeColor=#23445D;fontColor=default;" edge="1" parent="1" source="MSWYseAB1ExkJqszaERb-93" target="MSWYseAB1ExkJqszaERb-83">
          <mxGeometry relative="1" as="geometry" />
        </mxCell>
        <mxCell id="MSWYseAB1ExkJqszaERb-93" value="&#xa;&lt;span style=&quot;font-size: 20px; line-height: 150%;&quot;&gt;GiangVienID&#xa;&lt;/span&gt;&#xa;&#xa;&#xa;&#xa;" style="ellipse;whiteSpace=wrap;html=1;fontSize=20;fontFamily=Times New Roman;verticalAlign=top;fontStyle=4;labelBackgroundColor=none;fillColor=#182E3E;strokeColor=#FFFFFF;fontColor=#FFFFFF;" vertex="1" parent="1">
          <mxGeometry x="410" y="560" width="120" height="80" as="geometry" />
        </mxCell>
        <mxCell id="MSWYseAB1ExkJqszaERb-96" style="rounded=0;orthogonalLoop=1;jettySize=auto;html=1;exitX=1;exitY=0.5;exitDx=0;exitDy=0;entryX=0;entryY=0.5;entryDx=0;entryDy=0;labelBackgroundColor=none;strokeColor=#23445D;fontColor=default;" edge="1" parent="1" source="MSWYseAB1ExkJqszaERb-94" target="MSWYseAB1ExkJqszaERb-83">
          <mxGeometry relative="1" as="geometry" />
        </mxCell>
        <mxCell id="MSWYseAB1ExkJqszaERb-94" value="KhoaHocID" style="ellipse;whiteSpace=wrap;html=1;align=center;fontFamily=Times New Roman;fontSize=20;fontStyle=4;labelBackgroundColor=none;fillColor=#182E3E;strokeColor=#FFFFFF;fontColor=#FFFFFF;" vertex="1" parent="1">
          <mxGeometry x="110" y="570" width="120" height="80" as="geometry" />
        </mxCell>
        <mxCell id="MSWYseAB1ExkJqszaERb-98" value="" style="endArrow=none;html=1;rounded=0;exitX=1;exitY=0.5;exitDx=0;exitDy=0;entryX=0;entryY=0.5;entryDx=0;entryDy=0;labelBackgroundColor=none;strokeColor=#23445D;fontColor=default;" edge="1" parent="1" source="MSWYseAB1ExkJqszaERb-18" target="MSWYseAB1ExkJqszaERb-97">
          <mxGeometry width="50" height="50" relative="1" as="geometry">
            <mxPoint x="360" y="380" as="sourcePoint" />
            <mxPoint x="770" y="390" as="targetPoint" />
          </mxGeometry>
        </mxCell>
        <mxCell id="MSWYseAB1ExkJqszaERb-99" value="&lt;h1&gt;N&lt;/h1&gt;" style="edgeLabel;html=1;align=center;verticalAlign=middle;resizable=0;points=[];labelBackgroundColor=none;fontColor=#000000;" vertex="1" connectable="0" parent="MSWYseAB1ExkJqszaERb-98">
          <mxGeometry x="-0.7512" y="-3" relative="1" as="geometry">
            <mxPoint as="offset" />
          </mxGeometry>
        </mxCell>
        <mxCell id="MSWYseAB1ExkJqszaERb-97" value="&lt;h1&gt;Học&lt;/h1&gt;" style="rhombus;whiteSpace=wrap;html=1;labelBackgroundColor=none;fillColor=#182E3E;strokeColor=#FFFFFF;fontColor=#FFFFFF;" vertex="1" parent="1">
          <mxGeometry x="530" y="390" width="80" height="80" as="geometry" />
        </mxCell>
        <mxCell id="MSWYseAB1ExkJqszaERb-105" style="rounded=0;orthogonalLoop=1;jettySize=auto;html=1;entryX=0.5;entryY=0;entryDx=0;entryDy=0;labelBackgroundColor=none;strokeColor=#23445D;fontColor=default;" edge="1" parent="1" source="MSWYseAB1ExkJqszaERb-101" target="MSWYseAB1ExkJqszaERb-97">
          <mxGeometry relative="1" as="geometry" />
        </mxCell>
        <mxCell id="MSWYseAB1ExkJqszaERb-101" value="HocVienID" style="ellipse;whiteSpace=wrap;html=1;labelBackgroundColor=none;fontSize=20;fontFamily=Times New Roman;fontStyle=4;fillColor=#182E3E;strokeColor=#FFFFFF;fontColor=#FFFFFF;" vertex="1" parent="1">
          <mxGeometry x="620" y="300" width="120" height="90" as="geometry" />
        </mxCell>
        <mxCell id="MSWYseAB1ExkJqszaERb-104" style="rounded=0;orthogonalLoop=1;jettySize=auto;html=1;entryX=0.5;entryY=1;entryDx=0;entryDy=0;labelBackgroundColor=none;strokeColor=#23445D;fontColor=default;" edge="1" parent="1" source="MSWYseAB1ExkJqszaERb-102" target="MSWYseAB1ExkJqszaERb-97">
          <mxGeometry relative="1" as="geometry" />
        </mxCell>
        <mxCell id="MSWYseAB1ExkJqszaERb-102" value="KhoaHocID" style="ellipse;whiteSpace=wrap;html=1;align=center;fontFamily=Times New Roman;fontSize=20;fontStyle=4;labelBackgroundColor=none;fillColor=#182E3E;strokeColor=#FFFFFF;fontColor=#FFFFFF;" vertex="1" parent="1">
          <mxGeometry x="400" y="430" width="120" height="80" as="geometry" />
        </mxCell>
        <mxCell id="MSWYseAB1ExkJqszaERb-107" style="rounded=0;orthogonalLoop=1;jettySize=auto;html=1;entryX=0.5;entryY=1;entryDx=0;entryDy=0;labelBackgroundColor=none;strokeColor=#23445D;fontColor=default;" edge="1" parent="1" source="MSWYseAB1ExkJqszaERb-106" target="MSWYseAB1ExkJqszaERb-97">
          <mxGeometry relative="1" as="geometry" />
        </mxCell>
        <mxCell id="MSWYseAB1ExkJqszaERb-106" value=" &#xa;  NgayDangKy " style="ellipse;whiteSpace=wrap;html=1;fontSize=20;fontFamily=Times New Roman;verticalAlign=top;labelBackgroundColor=none;fillColor=#182E3E;strokeColor=#FFFFFF;fontColor=#FFFFFF;" vertex="1" parent="1">
          <mxGeometry x="620" y="470" width="120" height="80" as="geometry" />
        </mxCell>
        <mxCell id="MSWYseAB1ExkJqszaERb-109" style="rounded=0;orthogonalLoop=1;jettySize=auto;html=1;entryX=0.5;entryY=0;entryDx=0;entryDy=0;labelBackgroundColor=none;strokeColor=#23445D;fontColor=default;" edge="1" parent="1" source="MSWYseAB1ExkJqszaERb-108" target="MSWYseAB1ExkJqszaERb-97">
          <mxGeometry relative="1" as="geometry" />
        </mxCell>
        <mxCell id="MSWYseAB1ExkJqszaERb-108" value=" &#xa;  TrangThai " style="ellipse;whiteSpace=wrap;html=1;fontFamily=Times New Roman;fontSize=20;verticalAlign=top;labelBackgroundColor=none;fillColor=#182E3E;strokeColor=#FFFFFF;fontColor=#FFFFFF;" vertex="1" parent="1">
          <mxGeometry x="450" y="290" width="120" height="80" as="geometry" />
        </mxCell>
        <mxCell id="MSWYseAB1ExkJqszaERb-111" value="DanhGia" style="rhombus;whiteSpace=wrap;html=1;strokeColor=#FFFFFF;fillColor=#182E3E;verticalAlign=middle;fontFamily=Times New Roman;fontSize=19;fontColor=#FFFFFF;labelBackgroundColor=none;" vertex="1" parent="1">
          <mxGeometry x="560" y="160" width="130" height="80" as="geometry" />
        </mxCell>
        <mxCell id="MSWYseAB1ExkJqszaERb-118" style="rounded=0;orthogonalLoop=1;jettySize=auto;html=1;entryX=0;entryY=0;entryDx=0;entryDy=0;strokeColor=#23445D;labelBackgroundColor=none;fontColor=default;" edge="1" parent="1" source="MSWYseAB1ExkJqszaERb-116" target="MSWYseAB1ExkJqszaERb-111">
          <mxGeometry relative="1" as="geometry" />
        </mxCell>
        <mxCell id="MSWYseAB1ExkJqszaERb-116" value="&#xa;&lt;span style=&quot;font-size: 20px; line-height: 150%;&quot;&gt;DanhGiaID&#xa;&lt;/span&gt;&#xa;&#xa;&#xa;&#xa;" style="ellipse;whiteSpace=wrap;html=1;strokeColor=#FFFFFF;fontColor=#FFFFFF;fillColor=#182E3E;fontStyle=6;fontFamily=Times New Roman;fontSize=20;verticalAlign=top;labelBackgroundColor=none;" vertex="1" parent="1">
          <mxGeometry x="400" y="70" width="120" height="80" as="geometry" />
        </mxCell>
        <mxCell id="MSWYseAB1ExkJqszaERb-119" value="HocVienID" style="ellipse;whiteSpace=wrap;html=1;labelBackgroundColor=none;fontSize=20;fontFamily=Times New Roman;fontStyle=4;fillColor=#182E3E;strokeColor=#FFFFFF;fontColor=#FFFFFF;" vertex="1" parent="1">
          <mxGeometry x="690" y="20" width="120" height="80" as="geometry" />
        </mxCell>
        <mxCell id="MSWYseAB1ExkJqszaERb-121" style="rounded=0;orthogonalLoop=1;jettySize=auto;html=1;strokeColor=#23445D;labelBackgroundColor=none;fontColor=default;" edge="1" parent="1" source="MSWYseAB1ExkJqszaERb-120" target="MSWYseAB1ExkJqszaERb-111">
          <mxGeometry relative="1" as="geometry" />
        </mxCell>
        <mxCell id="MSWYseAB1ExkJqszaERb-120" value="KhoaHocID" style="ellipse;whiteSpace=wrap;html=1;align=center;fontFamily=Times New Roman;fontSize=20;fontStyle=4;labelBackgroundColor=none;fillColor=#182E3E;strokeColor=#FFFFFF;fontColor=#FFFFFF;" vertex="1" parent="1">
          <mxGeometry x="540" y="10" width="120" height="70" as="geometry" />
        </mxCell>
        <mxCell id="MSWYseAB1ExkJqszaERb-122" style="rounded=0;orthogonalLoop=1;jettySize=auto;html=1;strokeColor=#23445D;labelBackgroundColor=none;fontColor=default;" edge="1" parent="1" source="MSWYseAB1ExkJqszaERb-119" target="MSWYseAB1ExkJqszaERb-111">
          <mxGeometry relative="1" as="geometry" />
        </mxCell>
        <mxCell id="MSWYseAB1ExkJqszaERb-123" value=" &#xa;  NhanXet " style="ellipse;whiteSpace=wrap;html=1;strokeColor=#FFFFFF;fillColor=#182E3E;fontFamily=Times New Roman;fontSize=20;fontColor=#FFFFFF;labelBackgroundColor=none;align=center;verticalAlign=top;fontStyle=0" vertex="1" parent="1">
          <mxGeometry x="740" y="120" width="120" height="80" as="geometry" />
        </mxCell>
        <mxCell id="MSWYseAB1ExkJqszaERb-124" style="rounded=0;orthogonalLoop=1;jettySize=auto;html=1;entryX=0.906;entryY=0.336;entryDx=0;entryDy=0;entryPerimeter=0;strokeColor=#23445D;" edge="1" parent="1" source="MSWYseAB1ExkJqszaERb-123" target="MSWYseAB1ExkJqszaERb-111">
          <mxGeometry relative="1" as="geometry" />
        </mxCell>
      </root>
    </mxGraphModel>
  </diagram>
</mxfile>
